<svg width="151" height="29" viewBox="0 0 151 29" fill="none" xmlns="http://www.w3.org/2000/svg">
<path d="M139.698 28.7382C137.778 28.7382 135.902 28.4109 134.069 27.7563C132.279 27.0581 130.796 26.0325 129.617 24.6796L132.17 21.1447C133.305 22.2357 134.461 23.0649 135.64 23.6322C136.862 24.1559 138.062 24.4178 139.24 24.4178C140.113 24.4178 140.92 24.3087 141.662 24.0905C142.404 23.8723 142.993 23.5231 143.43 23.0431C143.91 22.5194 144.15 21.8211 144.15 20.9483C144.15 19.9882 143.822 19.2245 143.168 18.6572C142.557 18.0898 141.75 17.6316 140.746 17.2825C139.786 16.9333 138.76 16.606 137.669 16.3006C135.443 15.5587 133.741 14.5331 132.563 13.2239C131.385 11.9146 130.796 10.3217 130.796 8.44517C130.796 7.00502 131.145 5.67397 131.843 4.45202C132.585 3.18643 133.654 2.16087 135.051 1.37533C136.491 0.589792 138.258 0.197021 140.353 0.197021C142.23 0.197021 143.91 0.437048 145.394 0.917099C146.877 1.35351 148.274 2.09541 149.583 3.14279L147.161 6.93956C146.375 6.11038 145.437 5.4994 144.346 5.10664C143.255 4.71387 142.273 4.49566 141.4 4.45202C140.658 4.40838 139.938 4.51748 139.24 4.77933C138.586 5.04117 138.04 5.41212 137.604 5.89217C137.167 6.37223 136.949 6.93956 136.949 7.59417C136.949 8.51063 137.254 9.25253 137.865 9.81986C138.476 10.3872 139.262 10.8454 140.222 11.1946C141.226 11.5 142.208 11.8273 143.168 12.1765C144.521 12.5692 145.721 13.0929 146.768 13.7476C147.816 14.4022 148.645 15.2095 149.256 16.1696C149.91 17.1297 150.238 18.3299 150.238 19.77C150.238 21.3847 149.845 22.8903 149.059 24.2869C148.317 25.6397 147.161 26.7308 145.59 27.5599C144.062 28.3455 142.099 28.7382 139.698 28.7382Z" fill="#E0E0E0"/>
<path d="M105.008 28.8685C102.477 28.8685 100.164 28.323 98.069 27.232C96.0179 26.141 94.3814 24.5481 93.1594 22.4533C91.9811 20.3149 91.392 17.7182 91.392 14.6634C91.392 11.6521 92.0248 9.05551 93.2903 6.87346C94.5559 4.64777 96.2361 2.94577 98.3309 1.76746C100.469 0.589155 102.804 0 105.335 0C107.866 0 110.005 0.589155 111.75 1.76746C113.496 2.90213 114.827 4.255 115.744 5.82608L115.351 6.87346L115.94 1.11285H121.57V28.2139H115.482V21.1441L116.136 22.7151C115.962 23.1516 115.569 23.7189 114.958 24.4171C114.391 25.0718 113.605 25.7482 112.601 26.4464C111.641 27.1447 110.529 27.7339 109.263 28.2139C107.997 28.6503 106.579 28.8685 105.008 28.8685ZM106.644 23.828C108.172 23.828 109.547 23.5443 110.769 22.977C111.991 22.4097 112.994 21.6241 113.78 20.6204C114.609 19.573 115.176 18.3292 115.482 16.8891V11.5867C115.133 10.2775 114.522 9.14279 113.649 8.18269C112.776 7.17894 111.729 6.41523 110.507 5.89154C109.285 5.3242 107.932 5.04054 106.448 5.04054C104.833 5.04054 103.35 5.4333 101.997 6.21884C100.644 7.00438 99.5528 8.09541 98.7237 9.49192C97.9381 10.8884 97.5453 12.525 97.5453 14.4015C97.5453 16.1472 97.9599 17.7401 98.7891 19.1802C99.6183 20.6204 100.731 21.755 102.128 22.5842C103.524 23.4134 105.03 23.828 106.644 23.828Z" fill="#E0E0E0"/>
<path d="M75.2091 1.11403L75.7982 8.96942L75.4709 7.92203C76.1692 6.26367 77.1729 4.86716 78.4821 3.7325C79.835 2.55419 81.2315 1.65954 82.6717 1.04857C84.1555 0.393956 85.4429 0.0666504 86.5339 0.0666504L86.2066 6.08911C84.1555 5.95818 82.3444 6.35095 80.7733 7.26741C79.2459 8.18388 78.0239 9.40582 77.1074 10.9333C76.2346 12.4607 75.7982 14.0972 75.7982 15.8429V28.2151H69.7758V1.11403H75.2091Z" fill="#E0E0E0"/>
<path d="M48.3352 28.8685C45.2367 28.8685 42.5746 28.2576 40.3489 27.0356C38.1232 25.77 36.3994 24.068 35.1774 21.9296C33.9991 19.7476 33.41 17.26 33.41 14.467C33.41 11.8049 34.0864 9.38281 35.4393 7.20077C36.7922 5.01872 38.6033 3.27308 40.8726 1.96385C43.1419 0.654616 45.6731 0 48.4661 0C52.0447 0 55.0123 1.04738 57.3689 3.14215C59.7255 5.23692 61.3184 8.11723 62.1476 11.7831L39.8252 19.6385L38.385 16.0381L56.7143 9.36099L55.405 10.212C54.8813 8.77184 54.0085 7.52807 52.7866 6.48069C51.5646 5.38966 49.9717 4.84415 48.0079 4.84415C46.3495 4.84415 44.8657 5.25874 43.5565 6.08792C42.2473 6.87346 41.2217 7.96448 40.4798 9.36099C39.7379 10.7575 39.367 12.3504 39.367 14.1397C39.367 16.0162 39.7597 17.6746 40.5453 19.1148C41.3308 20.5113 42.4 21.6241 43.7529 22.4533C45.1494 23.2388 46.7205 23.6316 48.4661 23.6316C49.6444 23.6316 50.7791 23.4134 51.8701 22.977C53.0048 22.5406 54.0522 21.9732 55.0123 21.275L57.8271 25.7918C56.4742 26.7083 54.9468 27.4502 53.2448 28.0175C51.5865 28.5849 49.9499 28.8685 48.3352 28.8685Z" fill="#E0E0E0"/>
<path d="M15.0561 28.9999L0 1.11328H7.20077L17.4128 22.6501L13.6815 22.5192L23.0424 1.11328H29.8504L15.3835 28.9999H15.0561Z" fill="#E0E0E0"/>
</svg>
